<?xml version="1.0" encoding="UTF-8"?>
<svg version="1.1" xmlns="http://www.w3.org/2000/svg" width="512" height="512">
<path d="M0 0 C2.57828908 2.28153533 5.13816799 4.57992075 7.6796875 6.90234375 C9.6870432 8.71707441 11.73567609 10.45391687 13.8125 12.1875 C57.73956464 50.62368156 83.8836003 110.06227362 91 167 C91.0942627 167.68779541 91.18852539 168.37559082 91.28564453 169.08422852 C99.27395614 235.21287245 79.08689964 302.82219519 38.55859375 355.15234375 C34.27952594 360.45838783 29.78244944 365.55614045 25.1875 370.58984375 C23.06733383 372.92581254 21.0030269 375.30326875 18.9375 377.6875 C15.93261474 381.06285057 12.81720965 384.09712332 9.36328125 387.0078125 C7.54337564 388.5419478 5.75745061 390.09708884 3.98046875 391.6796875 C-28.61053576 420.50743977 -68.49384996 439.37342571 -110.8125 448.75 C-111.70622314 448.94875732 -112.59994629 449.14751465 -113.52075195 449.35229492 C-116.34016056 449.95010282 -119.16368823 450.48835801 -122 451 C-123.02391846 451.18763916 -124.04783691 451.37527832 -125.1027832 451.56860352 C-137.84595833 453.58849863 -150.69086618 453.44084721 -163.5625 453.4375 C-164.78721008 453.43823517 -166.01192017 453.43897034 -167.27374268 453.43972778 C-186.03710083 453.41012 -203.72349094 452.54134925 -222 448 C-223.06589355 447.74831055 -224.13178711 447.49662109 -225.22998047 447.23730469 C-262.28871062 438.34320945 -296.49808585 421.03589294 -326 397 C-326.54543457 396.5575293 -327.09086914 396.11505859 -327.65283203 395.65917969 C-341.37409634 384.44023756 -354.1814377 372.06207814 -365 358 C-365.77214844 357.04480469 -366.54429687 356.08960938 -367.33984375 355.10546875 C-384.80086689 333.17574774 -397.60502496 308.32772381 -407 282 C-407.43868408 280.77482666 -407.43868408 280.77482666 -407.88623047 279.52490234 C-411.19875616 270.10265042 -413.67861815 260.58077362 -415.75 250.8125 C-416.04825684 249.40689819 -416.04825684 249.40689819 -416.35253906 247.97290039 C-419.70423291 231.32222578 -420.40555304 215.12993287 -420.375 198.1875 C-420.37445618 197.05582397 -420.37391235 195.92414795 -420.37335205 194.75817871 C-420.33598364 177.85749505 -419.77664671 161.5424548 -416 145 C-415.78037598 144.01338379 -415.56075195 143.02676758 -415.33447266 142.01025391 C-410.74525956 121.90930568 -403.93000032 102.57473702 -395 84 C-394.50209961 82.96311035 -394.50209961 82.96311035 -393.99414062 81.90527344 C-382.61401066 58.58371117 -366.97213459 37.62408627 -349 19 C-348.43345703 18.41154297 -347.86691406 17.82308594 -347.28320312 17.21679688 C-279.87307377 -52.42792241 -176.62899579 -75.78147128 0 0 Z M-283.4609375 90.7109375 C-285.72392857 93.41858646 -287.87422143 96.18353525 -290 99 C-290.77601563 99.98742187 -291.55203125 100.97484375 -292.3515625 101.9921875 C-317.25557378 134.48196062 -327.78856491 176.53065137 -323.05004883 216.9909668 C-318.23925774 253.11633697 -301.99303312 285.00696688 -276.35546875 310.64453125 C-275.04926888 311.95073112 -273.75397228 313.26921358 -272.5078125 314.6328125 C-262.4181409 325.52053723 -249.05678426 333.23308303 -236 340 C-235.08831055 340.47928955 -235.08831055 340.47928955 -234.15820312 340.96826172 C-197.88467503 359.80410842 -154.06681313 361.75191519 -115.35595703 349.78173828 C-75.74931985 336.6397225 -41.64386772 308.23972986 -22.4296875 271.1171875 C-3.18352148 232.70722647 1.03770088 188.81097608 -12.3359375 147.75390625 C-14.77290168 140.61995975 -17.70998193 133.77810329 -21 127 C-21.29600098 126.37818848 -21.59200195 125.75637695 -21.89697266 125.11572266 C-29.38447397 109.56226908 -40.01779623 96.33307357 -52 84 C-52.52843506 83.44892578 -53.05687012 82.89785156 -53.60131836 82.33007812 C-64.66035719 70.98490836 -77.86535846 62.05389756 -92 55 C-92.69673828 54.65098633 -93.39347656 54.30197266 -94.11132812 53.94238281 C-157.9035296 22.56679868 -235.83140531 38.24284966 -283.4609375 90.7109375 Z " fill="#2096F3" transform="translate(420,59)"/>
<path d="M0 0 C7.58198342 4.42698045 12.29571701 10.49844239 14.5625 19 C14.98463993 22.86901202 14.98306198 26.70821139 14.96655273 30.59741211 C14.97341599 31.73504501 14.98027924 32.87267792 14.98735046 34.04478455 C15.00558679 37.78909947 15.00178535 41.53299413 14.99609375 45.27734375 C15.00065695 47.88993973 15.00596293 50.50253452 15.01197815 53.11512756 C15.02198791 58.58484893 15.01872825 64.05445191 15.00854492 69.52416992 C14.9970666 75.82839551 15.01114171 82.13219553 15.0379414 88.43636507 C15.06284372 94.52433906 15.06526392 100.61211796 15.05882454 106.70013618 C15.05867146 109.28004222 15.06470425 111.8599565 15.07711601 114.43983269 C15.09204381 118.05127216 15.08133436 121.66178235 15.06420898 125.27319336 C15.07387695 126.33165466 15.08354492 127.39011597 15.09350586 128.48065186 C15.00343694 137.58157842 12.45496481 144.72114546 6.27734375 151.49609375 C0.04890542 156.9583916 -7.18002843 158.37071222 -15.234375 158.2734375 C-22.88764094 157.62010992 -28.81696013 154.59179618 -33.96875 148.9296875 C-38.55994461 142.89763926 -40.550089 136.78275913 -40.57794189 129.21406555 C-40.58365204 128.27925858 -40.58936218 127.3444516 -40.59524536 126.38131714 C-40.59636322 125.36772125 -40.59748108 124.35412537 -40.59863281 123.30981445 C-40.60359772 122.23274734 -40.60856262 121.15568024 -40.61367798 120.04597473 C-40.62827444 116.48507038 -40.6350979 112.9242106 -40.640625 109.36328125 C-40.64637907 106.88331603 -40.65213677 104.40335082 -40.65789795 101.92338562 C-40.66840117 96.72244052 -40.6742481 91.52151085 -40.67773438 86.32055664 C-40.68321378 79.67068703 -40.7072331 73.02102783 -40.73570633 66.37121296 C-40.75437233 61.24695753 -40.75954046 56.12275113 -40.76107025 50.99846458 C-40.76408898 48.54777086 -40.77209103 46.09707784 -40.78525543 43.64641762 C-40.80239635 40.20984111 -40.80041567 36.77376065 -40.79394531 33.3371582 C-40.8031601 32.33368347 -40.81237488 31.33020874 -40.8218689 30.29632568 C-40.76210424 20.11326026 -38.58610391 11.51386104 -31.4375 4 C-22.62503866 -2.97653189 -10.35435909 -4.70940988 0 0 Z M-25.25 13.8125 C-29.66664656 20.24818498 -29.73097028 26.10064038 -29.7121582 33.65185547 C-29.71726913 34.71277405 -29.72238007 35.77369263 -29.72764587 36.86676025 C-29.74152339 40.36696037 -29.74058638 43.86696317 -29.73828125 47.3671875 C-29.7421693 49.80567498 -29.7465042 52.24416178 -29.75126648 54.68264771 C-29.75872483 59.79187211 -29.75844025 64.90102741 -29.75317383 70.01025391 C-29.7473811 76.54933431 -29.76430763 83.08813129 -29.7875185 89.62716484 C-29.80226898 94.66299079 -29.80312571 99.69874871 -29.80000877 104.73459244 C-29.80052136 107.1450672 -29.8057474 109.55554583 -29.81582069 111.9659996 C-29.82819227 115.34063746 -29.82138846 118.71472604 -29.80981445 122.08935547 C-29.81745819 123.07974823 -29.82510193 124.07014099 -29.83297729 125.09054565 C-29.77763679 132.4112248 -28.92925325 138.27093692 -23.8125 143.875 C-19.1637937 146.80196323 -14.84643106 148.49053835 -9.29296875 147.69140625 C-3.88745513 146.02737624 -0.50618114 142.67204049 2.5625 138 C3.51900811 135.13047568 3.69650407 133.30823996 3.71640015 130.32722473 C3.72500061 129.3670343 3.73360107 128.40684387 3.74246216 127.41755676 C3.74672211 126.36557602 3.75098206 125.31359528 3.75537109 124.22973633 C3.76354858 123.12048798 3.77172607 122.01123962 3.78015137 120.86837769 C3.805007 117.18960105 3.82152241 113.51086301 3.8359375 109.83203125 C3.84392302 107.94801888 3.84392302 107.94801888 3.85206985 106.02594566 C3.87329992 100.74586855 3.89242914 95.46579723 3.90369225 90.18568897 C3.91991456 82.63157312 3.95305356 75.07797297 4.01009309 67.52405149 C4.05355601 61.56376092 4.0694468 55.60358459 4.07582474 49.64313316 C4.08253948 47.11261005 4.09776715 44.5820945 4.12171555 42.0516758 C4.15335224 38.50646516 4.15340512 34.96255122 4.14599609 31.41723633 C4.16240143 30.37537674 4.17880676 29.33351715 4.19570923 28.26008606 C4.13986173 21.71903184 3.07294709 16.92813638 -1.4375 12 C-9.62406855 6.24973177 -17.92508185 6.48758185 -25.25 13.8125 Z " fill="#2096F3" transform="translate(268.4375,211)"/>
<path d="M0 0 C5.67419102 5.09715464 8.51669587 10.97430709 9.47265625 18.5234375 C9.8431715 27.91779184 7.13406028 35.0902545 0.80859375 42.02734375 C-5.41984458 47.4896416 -12.64877843 48.90196222 -20.703125 48.8046875 C-28.34794595 48.15208083 -34.32139928 45.13278194 -39.4375 39.4375 C-44.38412986 33.01740593 -46.17827136 26.65788824 -45.90625 18.53125 C-44.6953693 10.64888238 -41.23800176 4.05584305 -35.01953125 -1.00390625 C-23.8966049 -8.49931635 -10.66857112 -8.2200466 0 0 Z M-31.28125 10.90625 C-33.8487608 15.05376745 -34.95674446 18.1174051 -34.78125 23.03125 C-33.24776734 29.16518064 -30.05294925 32.96815052 -24.90625 36.53125 C-20.34850006 38.05049998 -16.226041 38.46671726 -11.74609375 36.66015625 C-6.69712671 33.78177317 -4.09597349 30.91432024 -1.90625 25.53125 C-1.01194638 20.22710439 -1.89856794 15.99426209 -4.90625 11.53125 C-8.18715843 7.73464322 -11.32281306 5.26475217 -16.34375 4.40625 C-22.53504234 4.11042033 -26.98900399 6.61400399 -31.28125 10.90625 Z " fill="#2096F3" transform="translate(273.90625,149.46875)"/>
</svg>
